<svg width="48" height="48" viewBox="0 0 48 48" fill="none" xmlns="http://www.w3.org/2000/svg">
<path fill-rule="evenodd" clip-rule="evenodd" d="M0 24C0 10.746 10.746 0 24 0C37.254 0 48 10.746 48 24C48 37.254 37.254 48 24 48C10.746 48 0 37.254 0 24ZM35.764 34.128C37.928 34.628 38.984 35.438 39.506 36.61C42.31 33.166 44 28.778 44 24C44 12.972 35.028 4 24 4C12.972 4 4 12.972 4 24C4 28.782 5.692 33.174 8.502 36.62C9.02 35.444 10.068 34.628 12.236 34.128C12.3293 34.1065 12.4225 34.085 12.5156 34.0636C16.9071 33.0522 21.1097 32.0844 19.022 28.238C12.712 16.598 17.224 10 24 10C30.644 10 35.268 16.354 28.978 28.238C26.9343 32.0924 31.0704 33.0459 35.5892 34.0877C35.6474 34.1011 35.7057 34.1145 35.764 34.128Z" fill="#D9D9D9"/>
</svg>
