<svg width="396" height="296" viewBox="0 0 396 296" fill="none" xmlns="http://www.w3.org/2000/svg">
<path d="M0 289.779L0 6.22057C0 4.05754 0.225318 3.27318 0.648417 2.48241C1.07152 1.69164 1.6924 1.07103 2.48352 0.648125C3.27465 0.225216 4.05937 0 6.22337 0L389.777 0C391.941 0 392.725 0.225216 393.516 0.648125C394.308 1.07103 394.928 1.69164 395.352 2.48241C395.775 3.27318 396 4.05754 396 6.22057V289.779C396 291.942 395.775 292.727 395.352 293.518C394.928 294.308 394.308 294.929 393.516 295.352C392.725 295.775 391.941 296 389.777 296H6.22337C4.05937 296 3.27465 295.775 2.48352 295.352C1.6924 294.929 1.07152 294.308 0.648417 293.518C0.225318 292.727 0 291.942 0 289.779Z" fill="#EEEEEE"/>
</svg>
